<svg width="24" height="24" viewBox="0 0 24 24" fill="none" xmlns="http://www.w3.org/2000/svg">
<g clip-path="url(#clip0_5920:35246)">
<path opacity="0.4" d="M9.29247 6.64251C9.25118 6.48886 9.15055 6.35791 9.01272 6.27844C8.87488 6.19898 8.71113 6.17751 8.55747 6.21876L5.66247 6.99876L6.59247 10.475L4.27497 11.0938L3.34497 7.61751L0.446222 8.39377C0.292575 8.43506 0.16162 8.53569 0.082155 8.67352C0.00269003 8.81136 -0.018778 8.97511 0.022472 9.12877L1.88247 16.085C1.92377 16.2387 2.0244 16.3696 2.16223 16.4491C2.30006 16.5286 2.46381 16.55 2.61747 16.5088L10.7325 14.3338C10.8861 14.2925 11.0171 14.1919 11.0965 14.054C11.176 13.9162 11.1975 13.7524 11.1562 13.5988L9.29247 6.64251ZM20.4 14C19.688 14 18.9919 14.2112 18.3999 14.6067C17.8079 15.0023 17.3465 15.5646 17.074 16.2224C16.8015 16.8802 16.7302 17.604 16.8691 18.3024C17.0081 19.0007 17.3509 19.6422 17.8544 20.1456C18.3579 20.6491 18.9993 20.992 19.6976 21.1309C20.396 21.2698 21.1198 21.1985 21.7776 20.926C22.4354 20.6535 22.9977 20.1921 23.3933 19.6001C23.7888 19.0081 24 18.312 24 17.6C24 16.6453 23.6207 15.7296 22.9456 15.0544C22.2704 14.3793 21.3548 14 20.4 14Z" fill="#1C7ED6"/>
<path d="M14.4001 2C14.0819 2 13.7766 2.12643 13.5516 2.35147C13.3265 2.57652 13.2001 2.88174 13.2001 3.2V15.335L0.221364 18.875C0.144887 18.8961 0.0798587 18.9465 0.0405043 19.0154C0.00114994 19.0843 -0.00932748 19.1659 0.0113639 19.2425L0.483864 20.9788C0.504914 21.0552 0.555395 21.1203 0.624266 21.1596C0.693136 21.199 0.774789 21.2094 0.851364 21.1888L15.6151 17.1613C15.6151 17.1736 15.6151 17.186 15.617 17.1988C15.8217 14.7388 17.8876 12.8 20.4001 12.8C21.0815 12.7998 21.7551 12.945 22.3759 13.2259C22.9968 13.5068 23.5505 13.917 24.0001 14.429V2H14.4001ZM6.59261 10.475L5.66261 6.99875L3.34511 7.6175L4.27511 11.0938L6.59261 10.475Z" fill="#1C7ED6"/>
</g>
<defs>
<clipPath id="clip0_5920:35246">
<rect width="24" height="19.2" fill="white" transform="translate(0 2)"/>
</clipPath>
</defs>
</svg>
